<mxfile host="app.diagrams.net" modified="2024-05-22T03:00:06.994Z" agent="Mozilla/5.0 (Macintosh; Intel Mac OS X 10_15_7) AppleWebKit/537.36 (KHTML, like Gecko) Chrome/124.0.0.0 Safari/537.36" etag="K62kAQcRDtmZkuadn1CK" version="24.4.4" type="github">
  <diagram name="第 1 页" id="IZgFfTSHIUC8vvN_eHqE">
    <mxGraphModel dx="954" dy="606" grid="0" gridSize="10" guides="1" tooltips="1" connect="1" arrows="1" fold="1" page="0" pageScale="1" pageWidth="827" pageHeight="1169" math="0" shadow="0">
      <root>
        <mxCell id="0" />
        <mxCell id="1" parent="0" />
        <mxCell id="s-7A4ezLg-ZEzOZGVY8U-5" style="edgeStyle=orthogonalEdgeStyle;rounded=0;orthogonalLoop=1;jettySize=auto;html=1;entryX=0;entryY=0.5;entryDx=0;entryDy=0;" edge="1" parent="1" source="s-7A4ezLg-ZEzOZGVY8U-1" target="s-7A4ezLg-ZEzOZGVY8U-2">
          <mxGeometry relative="1" as="geometry">
            <Array as="points">
              <mxPoint x="358" y="349" />
              <mxPoint x="358" y="216" />
            </Array>
          </mxGeometry>
        </mxCell>
        <mxCell id="s-7A4ezLg-ZEzOZGVY8U-6" value="入参对象-必传" style="edgeLabel;html=1;align=center;verticalAlign=middle;resizable=0;points=[];" vertex="1" connectable="0" parent="s-7A4ezLg-ZEzOZGVY8U-5">
          <mxGeometry x="-0.6364" y="3" relative="1" as="geometry">
            <mxPoint x="1" y="5" as="offset" />
          </mxGeometry>
        </mxCell>
        <mxCell id="s-7A4ezLg-ZEzOZGVY8U-9" style="edgeStyle=orthogonalEdgeStyle;rounded=0;orthogonalLoop=1;jettySize=auto;html=1;" edge="1" parent="1" source="s-7A4ezLg-ZEzOZGVY8U-1">
          <mxGeometry relative="1" as="geometry">
            <mxPoint x="399" y="349" as="targetPoint" />
          </mxGeometry>
        </mxCell>
        <mxCell id="s-7A4ezLg-ZEzOZGVY8U-11" style="edgeStyle=orthogonalEdgeStyle;rounded=0;orthogonalLoop=1;jettySize=auto;html=1;entryX=0;entryY=0.5;entryDx=0;entryDy=0;" edge="1" parent="1" source="s-7A4ezLg-ZEzOZGVY8U-1" target="s-7A4ezLg-ZEzOZGVY8U-10">
          <mxGeometry relative="1" as="geometry">
            <Array as="points">
              <mxPoint x="358" y="349" />
              <mxPoint x="358" y="478" />
            </Array>
          </mxGeometry>
        </mxCell>
        <mxCell id="s-7A4ezLg-ZEzOZGVY8U-14" style="edgeStyle=orthogonalEdgeStyle;rounded=0;orthogonalLoop=1;jettySize=auto;html=1;entryX=0;entryY=0.5;entryDx=0;entryDy=0;" edge="1" parent="1" source="s-7A4ezLg-ZEzOZGVY8U-1" target="s-7A4ezLg-ZEzOZGVY8U-12">
          <mxGeometry relative="1" as="geometry">
            <Array as="points">
              <mxPoint x="358" y="349" />
              <mxPoint x="358" y="612" />
            </Array>
          </mxGeometry>
        </mxCell>
        <mxCell id="s-7A4ezLg-ZEzOZGVY8U-15" style="edgeStyle=orthogonalEdgeStyle;rounded=0;orthogonalLoop=1;jettySize=auto;html=1;entryX=0;entryY=0.5;entryDx=0;entryDy=0;" edge="1" parent="1" source="s-7A4ezLg-ZEzOZGVY8U-1" target="s-7A4ezLg-ZEzOZGVY8U-13">
          <mxGeometry relative="1" as="geometry">
            <Array as="points">
              <mxPoint x="359" y="349" />
              <mxPoint x="359" y="721" />
            </Array>
          </mxGeometry>
        </mxCell>
        <mxCell id="s-7A4ezLg-ZEzOZGVY8U-1" value="登录入口" style="rounded=1;whiteSpace=wrap;html=1;" vertex="1" parent="1">
          <mxGeometry x="117" y="319" width="120" height="60" as="geometry" />
        </mxCell>
        <mxCell id="s-7A4ezLg-ZEzOZGVY8U-17" value="" style="edgeStyle=orthogonalEdgeStyle;rounded=0;orthogonalLoop=1;jettySize=auto;html=1;" edge="1" parent="1" source="s-7A4ezLg-ZEzOZGVY8U-2" target="s-7A4ezLg-ZEzOZGVY8U-16">
          <mxGeometry relative="1" as="geometry" />
        </mxCell>
        <mxCell id="s-7A4ezLg-ZEzOZGVY8U-2" value="手机号登录" style="whiteSpace=wrap;html=1;rounded=1;" vertex="1" parent="1">
          <mxGeometry x="412" y="186" width="120" height="60" as="geometry" />
        </mxCell>
        <mxCell id="s-7A4ezLg-ZEzOZGVY8U-8" value="微信登录" style="rounded=1;whiteSpace=wrap;html=1;" vertex="1" parent="1">
          <mxGeometry x="410" y="317" width="120" height="60" as="geometry" />
        </mxCell>
        <mxCell id="s-7A4ezLg-ZEzOZGVY8U-10" value="扫码登录" style="rounded=1;whiteSpace=wrap;html=1;" vertex="1" parent="1">
          <mxGeometry x="415" y="448" width="120" height="60" as="geometry" />
        </mxCell>
        <mxCell id="s-7A4ezLg-ZEzOZGVY8U-12" value="QQ登录" style="rounded=1;whiteSpace=wrap;html=1;" vertex="1" parent="1">
          <mxGeometry x="423" y="582" width="120" height="60" as="geometry" />
        </mxCell>
        <mxCell id="s-7A4ezLg-ZEzOZGVY8U-13" value="游客登录" style="rounded=1;whiteSpace=wrap;html=1;" vertex="1" parent="1">
          <mxGeometry x="426" y="691" width="120" height="60" as="geometry" />
        </mxCell>
        <mxCell id="s-7A4ezLg-ZEzOZGVY8U-19" value="" style="edgeStyle=orthogonalEdgeStyle;rounded=0;orthogonalLoop=1;jettySize=auto;html=1;" edge="1" parent="1" source="s-7A4ezLg-ZEzOZGVY8U-16" target="s-7A4ezLg-ZEzOZGVY8U-18">
          <mxGeometry relative="1" as="geometry" />
        </mxCell>
        <mxCell id="s-7A4ezLg-ZEzOZGVY8U-16" value="号码校验" style="whiteSpace=wrap;html=1;rounded=1;" vertex="1" parent="1">
          <mxGeometry x="639" y="186" width="120" height="60" as="geometry" />
        </mxCell>
        <mxCell id="s-7A4ezLg-ZEzOZGVY8U-18" value="获得权限-getAuth()" style="whiteSpace=wrap;html=1;rounded=1;" vertex="1" parent="1">
          <mxGeometry x="839" y="186" width="120" height="60" as="geometry" />
        </mxCell>
      </root>
    </mxGraphModel>
  </diagram>
</mxfile>
